# xmcd CD database file
#
# Track frame offsets:
#	150
#	11807
#	38106
#	75070
#	100116
#	109728
#	152796
#	161683
#	187971
#
# Disc length: 2663 seconds
#
# Revision: 0
# Processed by: cddbd v1.5.2PL0 Copyright (c) Steve Scherf et al.
# Submitted via: CDex 1.51
#
DISCID=5c0a6509
DTITLE=Kamil Holub - Sen o tanecnici
DYEAR=1995
DGENRE=New Age
TTITLE0=Tanecnica
TTITLE1=Hluboky les
TTITLE2=Pistalky a jarni sneni
TTITLE3=Cista voda
TTITLE4=Vzpominka
TTITLE5=Na lukach
TTITLE6=Chudy kraj
TTITLE7=Tanec kolem ohne
TTITLE8=Na stastnou shledanou
EXTD=YEAR: 1995
EXTT0=
EXTT1=
EXTT2=
EXTT3=
EXTT4=
EXTT5=
EXTT6=
EXTT7=
EXTT8=
PLAYORDER=
